<svg xmlns="http://www.w3.org/2000/svg" viewBox="0 0 800 600" width="800" height="600">
  <defs>
    <linearGradient id="brightsky" x1="0%" y1="0%" x2="0%" y2="100%">
      <stop offset="0%" stop-color="#7C9CFF"/>
      <stop offset="50%" stop-color="#5EEAD4" stop-opacity="0.8"/>
      <stop offset="100%" stop-color="#0B0E14"/>
    </linearGradient>
    <filter id="noise2">
      <feTurbulence baseFrequency="0.55" numOctaves="2" seed="7"/>
      <feColorMatrix values="0 0 0 0 1  0 0 0 0 1  0 0 0 0 1  0 0 0 0.05 0"/>
      <feComposite in2="SourceGraphic" operator="in"/>
    </filter>
  </defs>

  <!-- Sky gradient -->
  <rect width="800" height="600" fill="url(#brightsky)"/>

  <!-- Horizon line of clouds -->
  <g opacity="0.6">
    <ellipse cx="120" cy="180" rx="180" ry="14" fill="#fff" opacity="0.4"/>
    <ellipse cx="450" cy="220" rx="240" ry="18" fill="#fff" opacity="0.5"/>
    <ellipse cx="680" cy="160" rx="160" ry="12" fill="#fff" opacity="0.35"/>
  </g>

  <!-- Black horizon (counter to anger) -->
  <rect y="450" width="800" height="150" fill="#0B0E14"/>

  <!-- Distant landscape silhouettes -->
  <path d="M 0 450 L 0 480 L 80 470 L 160 490 L 240 460 L 320 480 L 400 450 L 480 470 L 560 480 L 640 460 L 720 470 L 800 450 L 800 600 L 0 600 Z" fill="#0B0E14" opacity="0.95"/>

  <!-- Birds (3 small marks) -->
  <g stroke="#0B0E14" stroke-width="2" fill="none" opacity="0.7">
    <path d="M 200 280 Q 210 274 220 280 Q 230 274 240 280"/>
    <path d="M 380 250 Q 390 244 400 250 Q 410 244 420 250"/>
    <path d="M 540 290 Q 550 284 560 290 Q 570 284 580 290"/>
  </g>

  <!-- Noise overlay -->
  <rect width="800" height="600" filter="url(#noise2)"/>

  <!-- Title -->
  <text x="40" y="560" font-family="JetBrains Mono, monospace" font-size="14" font-weight="600" fill="#7C9CFF" letter-spacing="2">BRIGHT BLUE SKY</text>
  <text x="40" y="582" font-family="JetBrains Mono, monospace" font-size="10" fill="#9CA3AF">90x60 cm · cat genteng · 2019</text>
</svg>
