<svg xmlns="http://www.w3.org/2000/svg" viewBox="0 0 800 600" width="800" height="600">
  <defs>
    <filter id="noise3">
      <feTurbulence baseFrequency="0.85" numOctaves="3" seed="11"/>
      <feColorMatrix values="0 0 0 0 1  0 0 0 0 1  0 0 0 0 1  0 0 0 0.06 0"/>
      <feComposite in2="SourceGraphic" operator="in"/>
    </filter>
  </defs>

  <!-- Base -->
  <rect width="800" height="600" fill="#0B0E14"/>

  <!-- Figures in motion — abstract dancer silhouettes, randomly placed -->
  <g fill="#E8EAED">
    <!-- Figure 1: leaping, top-left -->
    <g transform="translate(180 220) rotate(-25)">
      <ellipse cx="0" cy="-50" rx="14" ry="18"/>  <!-- head -->
      <rect x="-12" y="-32" width="24" height="60" rx="10"/>  <!-- torso -->
      <rect x="-30" y="-20" width="14" height="50" rx="6" transform="rotate(-30)"/>  <!-- left arm raised -->
      <rect x="20" y="-15" width="14" height="55" rx="6" transform="rotate(40)"/>  <!-- right arm -->
      <rect x="-12" y="28" width="14" height="55" rx="6" transform="rotate(20)"/>  <!-- left leg -->
      <rect x="2" y="28" width="14" height="55" rx="6" transform="rotate(-20)"/>  <!-- right leg -->
    </g>

    <!-- Figure 2: spinning, mid-right -->
    <g transform="translate(580 320) rotate(15)">
      <ellipse cx="0" cy="-50" rx="14" ry="18"/>
      <rect x="-12" y="-32" width="24" height="60" rx="10"/>
      <rect x="-40" y="-25" width="14" height="50" rx="6" transform="rotate(-60)"/>
      <rect x="26" y="-25" width="14" height="50" rx="6" transform="rotate(60)"/>
      <rect x="-15" y="28" width="14" height="55" rx="6" transform="rotate(-15)"/>
      <rect x="1" y="28" width="14" height="55" rx="6" transform="rotate(15)"/>
    </g>

    <!-- Figure 3: small, far -->
    <g transform="translate(440 160) scale(0.5)">
      <ellipse cx="0" cy="-50" rx="14" ry="18"/>
      <rect x="-12" y="-32" width="24" height="60" rx="10"/>
      <rect x="-30" y="-20" width="14" height="50" rx="6" transform="rotate(-30)"/>
      <rect x="20" y="-15" width="14" height="55" rx="6" transform="rotate(40)"/>
      <rect x="-12" y="28" width="14" height="55" rx="6" transform="rotate(20)"/>
      <rect x="2" y="28" width="14" height="55" rx="6" transform="rotate(-20)"/>
    </g>

    <!-- Figure 4: lying down, bottom-left -->
    <g transform="translate(220 460) rotate(70)">
      <ellipse cx="0" cy="-50" rx="14" ry="18"/>
      <rect x="-12" y="-32" width="24" height="60" rx="10"/>
      <rect x="-30" y="-20" width="14" height="50" rx="6" transform="rotate(-30)"/>
      <rect x="20" y="-15" width="14" height="55" rx="6" transform="rotate(40)"/>
      <rect x="-12" y="28" width="14" height="55" rx="6" transform="rotate(20)"/>
      <rect x="2" y="28" width="14" height="55" rx="6" transform="rotate(-20)"/>
    </g>
  </g>

  <!-- Brush motion lines (red accent) -->
  <g stroke="#F78C6C" stroke-width="3" fill="none" opacity="0.7">
    <path d="M 80 380 Q 200 340 320 380"/>
    <path d="M 480 460 Q 600 430 720 470"/>
  </g>

  <!-- Noise overlay -->
  <rect width="800" height="600" filter="url(#noise3)"/>

  <!-- Title -->
  <text x="40" y="560" font-family="JetBrains Mono, monospace" font-size="14" font-weight="600" fill="#E8EAED" letter-spacing="2">DANCE</text>
  <text x="40" y="582" font-family="JetBrains Mono, monospace" font-size="10" fill="#9CA3AF">70x60 cm · cat genteng · 2020</text>
</svg>
