<svg xmlns="http://www.w3.org/2000/svg" viewBox="0 0 800 600" width="800" height="600">
  <defs>
    <linearGradient id="fake-rainbow-arc" x1="0%" y1="0%" x2="100%" y2="0%">
      <stop offset="0%" stop-color="#F97056"/>
      <stop offset="16%" stop-color="#F78C6C"/>
      <stop offset="32%" stop-color="#E8EAED"/>
      <stop offset="50%" stop-color="#5EEAD4"/>
      <stop offset="66%" stop-color="#7C9CFF"/>
      <stop offset="82%" stop-color="#9CB1FF"/>
      <stop offset="100%" stop-color="#BCCBFF"/>
    </linearGradient>
    <filter id="noise4">
      <feTurbulence baseFrequency="0.7" numOctaves="2" seed="13"/>
      <feColorMatrix values="0 0 0 0 1  0 0 0 0 1  0 0 0 0 1  0 0 0 0.05 0"/>
      <feComposite in2="SourceGraphic" operator="in"/>
    </filter>
  </defs>

  <!-- Base (sky) -->
  <rect width="800" height="600" fill="#0B0E14"/>

  <!-- Stars (small white dots) -->
  <g fill="#E8EAED" opacity="0.6">
    <circle cx="80" cy="60" r="1"/>
    <circle cx="200" cy="120" r="1.2"/>
    <circle cx="350" cy="80" r="1"/>
    <circle cx="500" cy="140" r="1.5"/>
    <circle cx="650" cy="60" r="1"/>
    <circle cx="720" cy="160" r="1.2"/>
    <circle cx="120" cy="220" r="1"/>
    <circle cx="280" cy="280" r="1.3"/>
    <circle cx="580" cy="260" r="1"/>
  </g>

  <!-- FAKE rainbow — incomplete arcs (cliché subverted) -->
  <g fill="none" stroke="url(#fake-rainbow-arc)" stroke-width="22">
    <path d="M 80 520 Q 400 -40 720 520" opacity="0.9"/>
  </g>
  <!-- Inner broken arc (more broken) -->
  <g fill="none" stroke="url(#fake-rainbow-arc)" stroke-width="14">
    <path d="M 200 480 Q 400 80 600 480" opacity="0.8" stroke-dasharray="180 30 80 60 200 40"/>
  </g>

  <!-- Ground silhouette -->
  <rect y="540" width="800" height="60" fill="#1A1F2B"/>
  <path d="M 0 540 L 800 540" stroke="#454C5C" stroke-width="1"/>

  <!-- Critique annotation (the "self-criticism" in the post) -->
  <g font-family="JetBrains Mono, monospace" fill="#F97056" opacity="0.7">
    <text x="60" y="420" font-size="11" font-style="italic">// cliché but stunning</text>
    <text x="60" y="438" font-size="11" font-style="italic">// nevertheless.</text>
  </g>

  <!-- Noise overlay -->
  <rect width="800" height="600" filter="url(#noise4)"/>

  <!-- Title -->
  <text x="40" y="560" font-family="JetBrains Mono, monospace" font-size="14" font-weight="600" fill="#5EEAD4" letter-spacing="2">FAKE RAINBOW</text>
  <text x="40" y="582" font-family="JetBrains Mono, monospace" font-size="10" fill="#9CA3AF">70x60 cm · cat genteng · 2020</text>
</svg>
