<svg xmlns="http://www.w3.org/2000/svg" viewBox="0 0 800 800" width="800" height="800">
  <defs>
    <radialGradient id="flame-glow" cx="50%" cy="55%" r="55%">
      <stop offset="0%" stop-color="#F97056"/>
      <stop offset="25%" stop-color="#F78C6C"/>
      <stop offset="55%" stop-color="#7C2D1B"/>
      <stop offset="100%" stop-color="#0B0E14" stop-opacity="0"/>
    </radialGradient>
    <filter id="noise5">
      <feTurbulence baseFrequency="0.75" numOctaves="2" seed="17"/>
      <feColorMatrix values="0 0 0 0 1  0 0 0 0 1  0 0 0 0 1  0 0 0 0.06 0"/>
      <feComposite in2="SourceGraphic" operator="in"/>
    </filter>
  </defs>

  <!-- Base -->
  <rect width="800" height="800" fill="#0B0E14"/>

  <!-- Flame glow center -->
  <circle cx="400" cy="440" r="380" fill="url(#flame-glow)"/>

  <!-- Flame shapes (organic, layered) -->
  <g>
    <!-- Outer flame (largest, most red) -->
    <path d="M 400 200 Q 280 320 320 480 Q 280 580 360 660 Q 320 700 400 720 Q 480 700 440 660 Q 520 580 480 480 Q 520 320 400 200 Z"
          fill="#F97056" opacity="0.9"/>
    <!-- Middle flame (orange) -->
    <path d="M 400 280 Q 320 360 350 480 Q 320 560 380 620 Q 360 660 400 670 Q 440 660 420 620 Q 480 560 450 480 Q 480 360 400 280 Z"
          fill="#F78C6C" opacity="0.85"/>
    <!-- Inner flame (lighter) -->
    <path d="M 400 340 Q 360 400 380 480 Q 360 540 400 580 Q 440 540 420 480 Q 440 400 400 340 Z"
          fill="#E8EAED" opacity="0.9"/>
  </g>

  <!-- Sparks / embers -->
  <g fill="#F78C6C">
    <circle cx="220" cy="240" r="3" opacity="0.7"/>
    <circle cx="580" cy="260" r="4" opacity="0.8"/>
    <circle cx="160" cy="400" r="2" opacity="0.6"/>
    <circle cx="640" cy="380" r="3" opacity="0.7"/>
    <circle cx="200" cy="600" r="2" opacity="0.6"/>
    <circle cx="600" cy="620" r="3" opacity="0.7"/>
    <circle cx="100" cy="500" r="2" opacity="0.5"/>
    <circle cx="700" cy="520" r="2" opacity="0.5"/>
  </g>

  <!-- Smoke trails above -->
  <g stroke="#454C5C" stroke-width="2" fill="none" opacity="0.5">
    <path d="M 340 180 Q 330 130 360 80"/>
    <path d="M 400 160 Q 410 110 380 50"/>
    <path d="M 460 180 Q 470 130 440 80"/>
  </g>

  <!-- Noise overlay -->
  <rect width="800" height="800" filter="url(#noise5)"/>

  <!-- Title -->
  <text x="40" y="760" font-family="JetBrains Mono, monospace" font-size="14" font-weight="600" fill="#F97056" letter-spacing="2">FLAME DANCE</text>
  <text x="40" y="782" font-family="JetBrains Mono, monospace" font-size="10" fill="#9CA3AF">100x100 cm · cat genteng · 2021</text>
</svg>
